  0
SECTION
  2
BLOCKS
  0
ENDSEC
  0
SECTION
  2
ENTITIES
  0
LINE
  8
0
 10
74.1946
 20
0.0607605
 11
74.8681
 21
0.241226
  0
LINE
  8
0
 10
74.8681
 20
0.241226
 11
75.5
 21
0.535889
  0
LINE
  8
0
 10
75.5
 20
0.535889
 11
76.0712
 21
0.935822
  0
LINE
  8
0
 10
76.0712
 20
0.935822
 11
76.5642
 21
1.42885
  0
LINE
  8
0
 10
76.5642
 20
1.42885
 11
76.9641
 21
2
  0
LINE
  8
0
 10
76.9641
 20
2
 11
77.2588
 21
2.63191
  0
LINE
  8
0
 10
77.2588
 20
2.63191
 11
77.4392
 21
3.3054
  0
LINE
  8
0
 10
77.4392
 20
3.3054
 11
77.5
 21
4
  0
LINE
  8
0
 10
77.5
 20
4
 11
77.5
 21
28.5
  0
LINE
  8
0
 10
77.5
 20
28.5
 11
74.8953
 21
28.7279
  0
LINE
  8
0
 10
74.8953
 20
28.7279
 11
72.3697
 21
29.4046
  0
LINE
  8
0
 10
72.3697
 20
29.4046
 11
70
 21
30.5096
  0
LINE
  8
0
 10
70
 20
30.5096
 11
67.8582
 21
32.0093
  0
LINE
  8
0
 10
67.8582
 20
32.0093
 11
66.0093
 21
33.8582
  0
LINE
  8
0
 10
66.0093
 20
33.8582
 11
64.5096
 21
36
  0
LINE
  8
0
 10
64.5096
 20
36
 11
63.4046
 21
38.3697
  0
LINE
  8
0
 10
63.4046
 20
38.3697
 11
62.7279
 21
40.8953
  0
LINE
  8
0
 10
62.7279
 20
40.8953
 11
62.5
 21
43.5
  0
LINE
  8
0
 10
62.5
 20
43.5
 11
62.5
 21
60.5
  0
LINE
  8
0
 10
62.5
 20
60.5
 11
51.5
 21
60.5
  0
LINE
  8
0
 10
51.5
 20
60.5
 11
51.5
 21
77.5
  0
LINE
  8
0
 10
51.5
 20
77.5
 11
4
 21
77.5
  0
LINE
  8
0
 10
4
 20
77.5
 11
3.3054
 21
77.4392
  0
LINE
  8
0
 10
3.3054
 20
77.4392
 11
2.63191
 21
77.2588
  0
LINE
  8
0
 10
2.63191
 20
77.2588
 11
2
 21
76.9641
  0
LINE
  8
0
 10
2
 20
76.9641
 11
1.42885
 21
76.5642
  0
LINE
  8
0
 10
1.42885
 20
76.5642
 11
0.935822
 21
76.0712
  0
LINE
  8
0
 10
0.935822
 20
76.0712
 11
0.535889
 21
75.5
  0
LINE
  8
0
 10
0.535889
 20
75.5
 11
0.241226
 21
74.8681
  0
LINE
  8
0
 10
0.241226
 20
74.8681
 11
0.0607605
 21
74.1946
  0
LINE
  8
0
 10
0.0607605
 20
74.1946
 11
0
 21
73.5
  0
LINE
  8
0
 10
0
 20
73.5
 11
0
 21
4
  0
LINE
  8
0
 10
0
 20
4
 11
0.0607605
 21
3.3054
  0
LINE
  8
0
 10
0.0607605
 20
3.3054
 11
0.241226
 21
2.63191
  0
LINE
  8
0
 10
0.241226
 20
2.63191
 11
0.535889
 21
2
  0
LINE
  8
0
 10
0.535889
 20
2
 11
0.935822
 21
1.42885
  0
LINE
  8
0
 10
0.935822
 20
1.42885
 11
1.42885
 21
0.935822
  0
LINE
  8
0
 10
1.42885
 20
0.935822
 11
2
 21
0.535889
  0
LINE
  8
0
 10
2
 20
0.535889
 11
2.63191
 21
0.241226
  0
LINE
  8
0
 10
2.63191
 20
0.241226
 11
3.3054
 21
0.0607605
  0
LINE
  8
0
 10
3.3054
 20
0.0607605
 11
4
 21
0
  0
LINE
  8
0
 10
4
 20
0
 11
73.5
 21
0
  0
LINE
  8
0
 10
73.5
 20
0
 11
74.1946
 21
0.0607605
  0
LINE
  8
0
 10
42.8368
 20
71.5743
 11
42.6785
 21
71.6167
  0
LINE
  8
0
 10
42.6785
 20
71.6167
 11
42.53
 21
71.6859
  0
LINE
  8
0
 10
42.53
 20
71.6859
 11
42.3958
 21
71.7799
  0
LINE
  8
0
 10
42.3958
 20
71.7799
 11
42.2799
 21
71.8958
  0
LINE
  8
0
 10
42.2799
 20
71.8958
 11
42.1859
 21
72.03
  0
LINE
  8
0
 10
42.1859
 20
72.03
 11
42.1167
 21
72.1785
  0
LINE
  8
0
 10
42.1167
 20
72.1785
 11
42.0743
 21
72.3368
  0
LINE
  8
0
 10
42.0743
 20
72.3368
 11
42.06
 21
72.5
  0
LINE
  8
0
 10
42.06
 20
72.5
 11
42.0743
 21
72.6632
  0
LINE
  8
0
 10
42.0743
 20
72.6632
 11
42.1167
 21
72.8215
  0
LINE
  8
0
 10
42.1167
 20
72.8215
 11
42.1859
 21
72.97
  0
LINE
  8
0
 10
42.1859
 20
72.97
 11
42.2799
 21
73.1042
  0
LINE
  8
0
 10
42.2799
 20
73.1042
 11
42.3958
 21
73.2201
  0
LINE
  8
0
 10
42.3958
 20
73.2201
 11
42.53
 21
73.3141
  0
LINE
  8
0
 10
42.53
 20
73.3141
 11
42.6785
 21
73.3833
  0
LINE
  8
0
 10
42.6785
 20
73.3833
 11
42.8368
 21
73.4257
  0
LINE
  8
0
 10
42.8368
 20
73.4257
 11
43
 21
73.44
  0
LINE
  8
0
 10
43
 20
73.44
 11
43.1632
 21
73.4257
  0
LINE
  8
0
 10
43.1632
 20
73.4257
 11
43.3215
 21
73.3833
  0
LINE
  8
0
 10
43.3215
 20
73.3833
 11
43.47
 21
73.3141
  0
LINE
  8
0
 10
43.47
 20
73.3141
 11
43.6042
 21
73.2201
  0
LINE
  8
0
 10
43.6042
 20
73.2201
 11
43.7201
 21
73.1042
  0
LINE
  8
0
 10
43.7201
 20
73.1042
 11
43.8141
 21
72.97
  0
LINE
  8
0
 10
43.8141
 20
72.97
 11
43.8833
 21
72.8215
  0
LINE
  8
0
 10
43.8833
 20
72.8215
 11
43.9257
 21
72.6632
  0
LINE
  8
0
 10
43.9257
 20
72.6632
 11
43.94
 21
72.5
  0
LINE
  8
0
 10
43.94
 20
72.5
 11
43.9257
 21
72.3368
  0
LINE
  8
0
 10
43.9257
 20
72.3368
 11
43.8833
 21
72.1785
  0
LINE
  8
0
 10
43.8833
 20
72.1785
 11
43.8141
 21
72.03
  0
LINE
  8
0
 10
43.8141
 20
72.03
 11
43.7201
 21
71.8958
  0
LINE
  8
0
 10
43.7201
 20
71.8958
 11
43.6042
 21
71.7799
  0
LINE
  8
0
 10
43.6042
 20
71.7799
 11
43.47
 21
71.6859
  0
LINE
  8
0
 10
43.47
 20
71.6859
 11
43.3215
 21
71.6167
  0
LINE
  8
0
 10
43.3215
 20
71.6167
 11
43.1632
 21
71.5743
  0
LINE
  8
0
 10
43.1632
 20
71.5743
 11
43
 21
71.56
  0
LINE
  8
0
 10
43
 20
71.56
 11
42.8368
 21
71.5743
  0
LINE
  8
0
 10
4.83676
 20
71.5743
 11
4.6785
 21
71.6167
  0
LINE
  8
0
 10
4.6785
 20
71.6167
 11
4.53
 21
71.6859
  0
LINE
  8
0
 10
4.53
 20
71.6859
 11
4.39577
 21
71.7799
  0
LINE
  8
0
 10
4.39577
 20
71.7799
 11
4.27991
 21
71.8958
  0
LINE
  8
0
 10
4.27991
 20
71.8958
 11
4.18593
 21
72.03
  0
LINE
  8
0
 10
4.18593
 20
72.03
 11
4.11668
 21
72.1785
  0
LINE
  8
0
 10
4.11668
 20
72.1785
 11
4.07428
 21
72.3368
  0
LINE
  8
0
 10
4.07428
 20
72.3368
 11
4.06
 21
72.5
  0
LINE
  8
0
 10
4.06
 20
72.5
 11
4.07428
 21
72.6632
  0
LINE
  8
0
 10
4.07428
 20
72.6632
 11
4.11668
 21
72.8215
  0
LINE
  8
0
 10
4.11668
 20
72.8215
 11
4.18593
 21
72.97
  0
LINE
  8
0
 10
4.18593
 20
72.97
 11
4.27991
 21
73.1042
  0
LINE
  8
0
 10
4.27991
 20
73.1042
 11
4.39577
 21
73.2201
  0
LINE
  8
0
 10
4.39577
 20
73.2201
 11
4.53
 21
73.3141
  0
LINE
  8
0
 10
4.53
 20
73.3141
 11
4.6785
 21
73.3833
  0
LINE
  8
0
 10
4.6785
 20
73.3833
 11
4.83676
 21
73.4257
  0
LINE
  8
0
 10
4.83676
 20
73.4257
 11
5
 21
73.44
  0
LINE
  8
0
 10
5
 20
73.44
 11
5.16322
 21
73.4257
  0
LINE
  8
0
 10
5.16322
 20
73.4257
 11
5.32149
 21
73.3833
  0
LINE
  8
0
 10
5.32149
 20
73.3833
 11
5.46999
 21
73.3141
  0
LINE
  8
0
 10
5.46999
 20
73.3141
 11
5.60422
 21
73.2201
  0
LINE
  8
0
 10
5.60422
 20
73.2201
 11
5.72008
 21
73.1042
  0
LINE
  8
0
 10
5.72008
 20
73.1042
 11
5.81406
 21
72.97
  0
LINE
  8
0
 10
5.81406
 20
72.97
 11
5.8833
 21
72.8215
  0
LINE
  8
0
 10
5.8833
 20
72.8215
 11
5.9257
 21
72.6632
  0
LINE
  8
0
 10
5.9257
 20
72.6632
 11
5.93999
 21
72.5
  0
LINE
  8
0
 10
5.93999
 20
72.5
 11
5.9257
 21
72.3368
  0
LINE
  8
0
 10
5.9257
 20
72.3368
 11
5.8833
 21
72.1785
  0
LINE
  8
0
 10
5.8833
 20
72.1785
 11
5.81406
 21
72.03
  0
LINE
  8
0
 10
5.81406
 20
72.03
 11
5.72008
 21
71.8958
  0
LINE
  8
0
 10
5.72008
 20
71.8958
 11
5.60422
 21
71.7799
  0
LINE
  8
0
 10
5.60422
 20
71.7799
 11
5.46999
 21
71.6859
  0
LINE
  8
0
 10
5.46999
 20
71.6859
 11
5.32149
 21
71.6167
  0
LINE
  8
0
 10
5.32149
 20
71.6167
 11
5.16322
 21
71.5743
  0
LINE
  8
0
 10
5.16322
 20
71.5743
 11
5
 21
71.56
  0
LINE
  8
0
 10
5
 20
71.56
 11
4.83676
 21
71.5743
  0
LINE
  8
0
 10
4.83676
 20
45.0743
 11
4.6785
 21
45.1167
  0
LINE
  8
0
 10
4.6785
 20
45.1167
 11
4.53
 21
45.1859
  0
LINE
  8
0
 10
4.53
 20
45.1859
 11
4.39577
 21
45.2799
  0
LINE
  8
0
 10
4.39577
 20
45.2799
 11
4.27991
 21
45.3958
  0
LINE
  8
0
 10
4.27991
 20
45.3958
 11
4.18593
 21
45.53
  0
LINE
  8
0
 10
4.18593
 20
45.53
 11
4.11668
 21
45.6785
  0
LINE
  8
0
 10
4.11668
 20
45.6785
 11
4.07428
 21
45.8368
  0
LINE
  8
0
 10
4.07428
 20
45.8368
 11
4.06
 21
46
  0
LINE
  8
0
 10
4.06
 20
46
 11
4.07428
 21
46.1632
  0
LINE
  8
0
 10
4.07428
 20
46.1632
 11
4.11668
 21
46.3215
  0
LINE
  8
0
 10
4.11668
 20
46.3215
 11
4.18593
 21
46.47
  0
LINE
  8
0
 10
4.18593
 20
46.47
 11
4.27991
 21
46.6042
  0
LINE
  8
0
 10
4.27991
 20
46.6042
 11
4.39577
 21
46.7201
  0
LINE
  8
0
 10
4.39577
 20
46.7201
 11
4.53
 21
46.8141
  0
LINE
  8
0
 10
4.53
 20
46.8141
 11
4.6785
 21
46.8833
  0
LINE
  8
0
 10
4.6785
 20
46.8833
 11
4.83676
 21
46.9257
  0
LINE
  8
0
 10
4.83676
 20
46.9257
 11
5
 21
46.94
  0
LINE
  8
0
 10
5
 20
46.94
 11
5.16322
 21
46.9257
  0
LINE
  8
0
 10
5.16322
 20
46.9257
 11
5.32149
 21
46.8833
  0
LINE
  8
0
 10
5.32149
 20
46.8833
 11
5.46999
 21
46.8141
  0
LINE
  8
0
 10
5.46999
 20
46.8141
 11
5.60422
 21
46.7201
  0
LINE
  8
0
 10
5.60422
 20
46.7201
 11
5.72008
 21
46.6042
  0
LINE
  8
0
 10
5.72008
 20
46.6042
 11
5.81406
 21
46.47
  0
LINE
  8
0
 10
5.81406
 20
46.47
 11
5.8833
 21
46.3215
  0
LINE
  8
0
 10
5.8833
 20
46.3215
 11
5.9257
 21
46.1632
  0
LINE
  8
0
 10
5.9257
 20
46.1632
 11
5.93999
 21
46
  0
LINE
  8
0
 10
5.93999
 20
46
 11
5.9257
 21
45.8368
  0
LINE
  8
0
 10
5.9257
 20
45.8368
 11
5.8833
 21
45.6785
  0
LINE
  8
0
 10
5.8833
 20
45.6785
 11
5.81406
 21
45.53
  0
LINE
  8
0
 10
5.81406
 20
45.53
 11
5.72008
 21
45.3958
  0
LINE
  8
0
 10
5.72008
 20
45.3958
 11
5.60422
 21
45.2799
  0
LINE
  8
0
 10
5.60422
 20
45.2799
 11
5.46999
 21
45.1859
  0
LINE
  8
0
 10
5.46999
 20
45.1859
 11
5.32149
 21
45.1167
  0
LINE
  8
0
 10
5.32149
 20
45.1167
 11
5.16322
 21
45.0743
  0
LINE
  8
0
 10
5.16322
 20
45.0743
 11
5
 21
45.06
  0
LINE
  8
0
 10
5
 20
45.06
 11
4.83676
 21
45.0743
  0
LINE
  8
0
 10
47.3368
 20
45.0743
 11
47.1785
 21
45.1167
  0
LINE
  8
0
 10
47.1785
 20
45.1167
 11
47.03
 21
45.1859
  0
LINE
  8
0
 10
47.03
 20
45.1859
 11
46.8958
 21
45.2799
  0
LINE
  8
0
 10
46.8958
 20
45.2799
 11
46.7799
 21
45.3958
  0
LINE
  8
0
 10
46.7799
 20
45.3958
 11
46.6859
 21
45.53
  0
LINE
  8
0
 10
46.6859
 20
45.53
 11
46.6167
 21
45.6785
  0
LINE
  8
0
 10
46.6167
 20
45.6785
 11
46.5743
 21
45.8368
  0
LINE
  8
0
 10
46.5743
 20
45.8368
 11
46.56
 21
46
  0
LINE
  8
0
 10
46.56
 20
46
 11
46.5743
 21
46.1632
  0
LINE
  8
0
 10
46.5743
 20
46.1632
 11
46.6167
 21
46.3215
  0
LINE
  8
0
 10
46.6167
 20
46.3215
 11
46.6859
 21
46.47
  0
LINE
  8
0
 10
46.6859
 20
46.47
 11
46.7799
 21
46.6042
  0
LINE
  8
0
 10
46.7799
 20
46.6042
 11
46.8958
 21
46.7201
  0
LINE
  8
0
 10
46.8958
 20
46.7201
 11
47.03
 21
46.8141
  0
LINE
  8
0
 10
47.03
 20
46.8141
 11
47.1785
 21
46.8833
  0
LINE
  8
0
 10
47.1785
 20
46.8833
 11
47.3368
 21
46.9257
  0
LINE
  8
0
 10
47.3368
 20
46.9257
 11
47.5
 21
46.94
  0
LINE
  8
0
 10
47.5
 20
46.94
 11
47.6632
 21
46.9257
  0
LINE
  8
0
 10
47.6632
 20
46.9257
 11
47.8215
 21
46.8833
  0
LINE
  8
0
 10
47.8215
 20
46.8833
 11
47.97
 21
46.8141
  0
LINE
  8
0
 10
47.97
 20
46.8141
 11
48.1042
 21
46.7201
  0
LINE
  8
0
 10
48.1042
 20
46.7201
 11
48.2201
 21
46.6042
  0
LINE
  8
0
 10
48.2201
 20
46.6042
 11
48.3141
 21
46.47
  0
LINE
  8
0
 10
48.3141
 20
46.47
 11
48.3833
 21
46.3215
  0
LINE
  8
0
 10
48.3833
 20
46.3215
 11
48.4257
 21
46.1632
  0
LINE
  8
0
 10
48.4257
 20
46.1632
 11
48.44
 21
46
  0
LINE
  8
0
 10
48.44
 20
46
 11
48.4257
 21
45.8368
  0
LINE
  8
0
 10
48.4257
 20
45.8368
 11
48.3833
 21
45.6785
  0
LINE
  8
0
 10
48.3833
 20
45.6785
 11
48.3141
 21
45.53
  0
LINE
  8
0
 10
48.3141
 20
45.53
 11
48.2201
 21
45.3958
  0
LINE
  8
0
 10
48.2201
 20
45.3958
 11
48.1042
 21
45.2799
  0
LINE
  8
0
 10
48.1042
 20
45.2799
 11
47.97
 21
45.1859
  0
LINE
  8
0
 10
47.97
 20
45.1859
 11
47.8215
 21
45.1167
  0
LINE
  8
0
 10
47.8215
 20
45.1167
 11
47.6632
 21
45.0743
  0
LINE
  8
0
 10
47.6632
 20
45.0743
 11
47.5
 21
45.06
  0
LINE
  8
0
 10
47.5
 20
45.06
 11
47.3368
 21
45.0743
  0
LINE
  8
0
 10
37.0135
 20
9.52692
 11
35.3298
 21
9.97807
  0
LINE
  8
0
 10
35.3298
 20
9.97807
 11
33.75
 21
10.7147
  0
LINE
  8
0
 10
33.75
 20
10.7147
 11
32.3221
 21
11.7146
  0
LINE
  8
0
 10
32.3221
 20
11.7146
 11
31.0896
 21
12.9471
  0
LINE
  8
0
 10
31.0896
 20
12.9471
 11
30.0897
 21
14.375
  0
LINE
  8
0
 10
30.0897
 20
14.375
 11
29.3531
 21
15.9548
  0
LINE
  8
0
 10
29.3531
 20
15.9548
 11
28.9019
 21
17.6385
  0
LINE
  8
0
 10
28.9019
 20
17.6385
 11
28.75
 21
19.375
  0
LINE
  8
0
 10
28.75
 20
19.375
 11
28.9019
 21
21.1115
  0
LINE
  8
0
 10
28.9019
 20
21.1115
 11
29.3531
 21
22.7952
  0
LINE
  8
0
 10
29.3531
 20
22.7952
 11
30.0897
 21
24.375
  0
LINE
  8
0
 10
30.0897
 20
24.375
 11
31.0896
 21
25.8029
  0
LINE
  8
0
 10
31.0896
 20
25.8029
 11
32.3221
 21
27.0354
  0
LINE
  8
0
 10
32.3221
 20
27.0354
 11
33.75
 21
28.0352
  0
LINE
  8
0
 10
33.75
 20
28.0352
 11
35.3298
 21
28.7719
  0
LINE
  8
0
 10
35.3298
 20
28.7719
 11
37.0135
 21
29.2231
  0
LINE
  8
0
 10
37.0135
 20
29.2231
 11
38.75
 21
29.375
  0
LINE
  8
0
 10
38.75
 20
29.375
 11
40.4865
 21
29.2231
  0
LINE
  8
0
 10
40.4865
 20
29.2231
 11
42.1702
 21
28.7719
  0
LINE
  8
0
 10
42.1702
 20
28.7719
 11
43.75
 21
28.0352
  0
LINE
  8
0
 10
43.75
 20
28.0352
 11
45.1779
 21
27.0354
  0
LINE
  8
0
 10
45.1779
 20
27.0354
 11
46.4104
 21
25.8029
  0
LINE
  8
0
 10
46.4104
 20
25.8029
 11
47.4102
 21
24.375
  0
LINE
  8
0
 10
47.4102
 20
24.375
 11
48.1469
 21
22.7952
  0
LINE
  8
0
 10
48.1469
 20
22.7952
 11
48.5981
 21
21.1115
  0
LINE
  8
0
 10
48.5981
 20
21.1115
 11
48.75
 21
19.375
  0
LINE
  8
0
 10
48.75
 20
19.375
 11
48.5981
 21
17.6385
  0
LINE
  8
0
 10
48.5981
 20
17.6385
 11
48.1469
 21
15.9548
  0
LINE
  8
0
 10
48.1469
 20
15.9548
 11
47.4102
 21
14.375
  0
LINE
  8
0
 10
47.4102
 20
14.375
 11
46.4104
 21
12.9471
  0
LINE
  8
0
 10
46.4104
 20
12.9471
 11
45.1779
 21
11.7146
  0
LINE
  8
0
 10
45.1779
 20
11.7146
 11
43.75
 21
10.7147
  0
LINE
  8
0
 10
43.75
 20
10.7147
 11
42.1702
 21
9.97807
  0
LINE
  8
0
 10
42.1702
 20
9.97807
 11
40.4865
 21
9.52692
  0
LINE
  8
0
 10
40.4865
 20
9.52692
 11
38.75
 21
9.375
  0
LINE
  8
0
 10
38.75
 20
9.375
 11
37.0135
 21
9.52692
  0
LINE
  8
0
 10
62.8368
 20
27.0743
 11
62.6785
 21
27.1167
  0
LINE
  8
0
 10
62.6785
 20
27.1167
 11
62.53
 21
27.1859
  0
LINE
  8
0
 10
62.53
 20
27.1859
 11
62.3958
 21
27.2799
  0
LINE
  8
0
 10
62.3958
 20
27.2799
 11
62.2799
 21
27.3958
  0
LINE
  8
0
 10
62.2799
 20
27.3958
 11
62.1859
 21
27.53
  0
LINE
  8
0
 10
62.1859
 20
27.53
 11
62.1167
 21
27.6785
  0
LINE
  8
0
 10
62.1167
 20
27.6785
 11
62.0743
 21
27.8368
  0
LINE
  8
0
 10
62.0743
 20
27.8368
 11
62.06
 21
28
  0
LINE
  8
0
 10
62.06
 20
28
 11
62.0743
 21
28.1632
  0
LINE
  8
0
 10
62.0743
 20
28.1632
 11
62.1167
 21
28.3215
  0
LINE
  8
0
 10
62.1167
 20
28.3215
 11
62.1859
 21
28.47
  0
LINE
  8
0
 10
62.1859
 20
28.47
 11
62.2799
 21
28.6042
  0
LINE
  8
0
 10
62.2799
 20
28.6042
 11
62.3958
 21
28.7201
  0
LINE
  8
0
 10
62.3958
 20
28.7201
 11
62.53
 21
28.8141
  0
LINE
  8
0
 10
62.53
 20
28.8141
 11
62.6785
 21
28.8833
  0
LINE
  8
0
 10
62.6785
 20
28.8833
 11
62.8368
 21
28.9257
  0
LINE
  8
0
 10
62.8368
 20
28.9257
 11
63
 21
28.94
  0
LINE
  8
0
 10
63
 20
28.94
 11
63.1632
 21
28.9257
  0
LINE
  8
0
 10
63.1632
 20
28.9257
 11
63.3215
 21
28.8833
  0
LINE
  8
0
 10
63.3215
 20
28.8833
 11
63.47
 21
28.8141
  0
LINE
  8
0
 10
63.47
 20
28.8141
 11
63.6042
 21
28.7201
  0
LINE
  8
0
 10
63.6042
 20
28.7201
 11
63.7201
 21
28.6042
  0
LINE
  8
0
 10
63.7201
 20
28.6042
 11
63.8141
 21
28.47
  0
LINE
  8
0
 10
63.8141
 20
28.47
 11
63.8833
 21
28.3215
  0
LINE
  8
0
 10
63.8833
 20
28.3215
 11
63.9257
 21
28.1632
  0
LINE
  8
0
 10
63.9257
 20
28.1632
 11
63.94
 21
28
  0
LINE
  8
0
 10
63.94
 20
28
 11
63.9257
 21
27.8368
  0
LINE
  8
0
 10
63.9257
 20
27.8368
 11
63.8833
 21
27.6785
  0
LINE
  8
0
 10
63.8833
 20
27.6785
 11
63.8141
 21
27.53
  0
LINE
  8
0
 10
63.8141
 20
27.53
 11
63.7201
 21
27.3958
  0
LINE
  8
0
 10
63.7201
 20
27.3958
 11
63.6042
 21
27.2799
  0
LINE
  8
0
 10
63.6042
 20
27.2799
 11
63.47
 21
27.1859
  0
LINE
  8
0
 10
63.47
 20
27.1859
 11
63.3215
 21
27.1167
  0
LINE
  8
0
 10
63.3215
 20
27.1167
 11
63.1632
 21
27.0743
  0
LINE
  8
0
 10
63.1632
 20
27.0743
 11
63
 21
27.06
  0
LINE
  8
0
 10
63
 20
27.06
 11
62.8368
 21
27.0743
  0
LINE
  8
0
 10
4.83676
 20
27.0743
 11
4.6785
 21
27.1167
  0
LINE
  8
0
 10
4.6785
 20
27.1167
 11
4.53
 21
27.1859
  0
LINE
  8
0
 10
4.53
 20
27.1859
 11
4.39577
 21
27.2799
  0
LINE
  8
0
 10
4.39577
 20
27.2799
 11
4.27991
 21
27.3958
  0
LINE
  8
0
 10
4.27991
 20
27.3958
 11
4.18593
 21
27.53
  0
LINE
  8
0
 10
4.18593
 20
27.53
 11
4.11668
 21
27.6785
  0
LINE
  8
0
 10
4.11668
 20
27.6785
 11
4.07428
 21
27.8368
  0
LINE
  8
0
 10
4.07428
 20
27.8368
 11
4.06
 21
28
  0
LINE
  8
0
 10
4.06
 20
28
 11
4.07428
 21
28.1632
  0
LINE
  8
0
 10
4.07428
 20
28.1632
 11
4.11668
 21
28.3215
  0
LINE
  8
0
 10
4.11668
 20
28.3215
 11
4.18593
 21
28.47
  0
LINE
  8
0
 10
4.18593
 20
28.47
 11
4.27991
 21
28.6042
  0
LINE
  8
0
 10
4.27991
 20
28.6042
 11
4.39577
 21
28.7201
  0
LINE
  8
0
 10
4.39577
 20
28.7201
 11
4.53
 21
28.8141
  0
LINE
  8
0
 10
4.53
 20
28.8141
 11
4.6785
 21
28.8833
  0
LINE
  8
0
 10
4.6785
 20
28.8833
 11
4.83676
 21
28.9257
  0
LINE
  8
0
 10
4.83676
 20
28.9257
 11
5
 21
28.94
  0
LINE
  8
0
 10
5
 20
28.94
 11
5.16322
 21
28.9257
  0
LINE
  8
0
 10
5.16322
 20
28.9257
 11
5.32149
 21
28.8833
  0
LINE
  8
0
 10
5.32149
 20
28.8833
 11
5.46999
 21
28.8141
  0
LINE
  8
0
 10
5.46999
 20
28.8141
 11
5.60422
 21
28.7201
  0
LINE
  8
0
 10
5.60422
 20
28.7201
 11
5.72008
 21
28.6042
  0
LINE
  8
0
 10
5.72008
 20
28.6042
 11
5.81406
 21
28.47
  0
LINE
  8
0
 10
5.81406
 20
28.47
 11
5.8833
 21
28.3215
  0
LINE
  8
0
 10
5.8833
 20
28.3215
 11
5.9257
 21
28.1632
  0
LINE
  8
0
 10
5.9257
 20
28.1632
 11
5.93999
 21
28
  0
LINE
  8
0
 10
5.93999
 20
28
 11
5.9257
 21
27.8368
  0
LINE
  8
0
 10
5.9257
 20
27.8368
 11
5.8833
 21
27.6785
  0
LINE
  8
0
 10
5.8833
 20
27.6785
 11
5.81406
 21
27.53
  0
LINE
  8
0
 10
5.81406
 20
27.53
 11
5.72008
 21
27.3958
  0
LINE
  8
0
 10
5.72008
 20
27.3958
 11
5.60422
 21
27.2799
  0
LINE
  8
0
 10
5.60422
 20
27.2799
 11
5.46999
 21
27.1859
  0
LINE
  8
0
 10
5.46999
 20
27.1859
 11
5.32149
 21
27.1167
  0
LINE
  8
0
 10
5.32149
 20
27.1167
 11
5.16322
 21
27.0743
  0
LINE
  8
0
 10
5.16322
 20
27.0743
 11
5
 21
27.06
  0
LINE
  8
0
 10
5
 20
27.06
 11
4.83676
 21
27.0743
  0
LINE
  8
0
 10
4.83676
 20
4.07428
 11
4.6785
 21
4.11668
  0
LINE
  8
0
 10
4.6785
 20
4.11668
 11
4.53
 21
4.18593
  0
LINE
  8
0
 10
4.53
 20
4.18593
 11
4.39577
 21
4.27991
  0
LINE
  8
0
 10
4.39577
 20
4.27991
 11
4.27991
 21
4.39577
  0
LINE
  8
0
 10
4.27991
 20
4.39577
 11
4.18593
 21
4.53
  0
LINE
  8
0
 10
4.18593
 20
4.53
 11
4.11668
 21
4.6785
  0
LINE
  8
0
 10
4.11668
 20
4.6785
 11
4.07428
 21
4.83676
  0
LINE
  8
0
 10
4.07428
 20
4.83676
 11
4.06
 21
5
  0
LINE
  8
0
 10
4.06
 20
5
 11
4.07428
 21
5.16322
  0
LINE
  8
0
 10
4.07428
 20
5.16322
 11
4.11668
 21
5.32149
  0
LINE
  8
0
 10
4.11668
 20
5.32149
 11
4.18593
 21
5.46999
  0
LINE
  8
0
 10
4.18593
 20
5.46999
 11
4.27991
 21
5.60422
  0
LINE
  8
0
 10
4.27991
 20
5.60422
 11
4.39577
 21
5.72008
  0
LINE
  8
0
 10
4.39577
 20
5.72008
 11
4.53
 21
5.81406
  0
LINE
  8
0
 10
4.53
 20
5.81406
 11
4.6785
 21
5.8833
  0
LINE
  8
0
 10
4.6785
 20
5.8833
 11
4.83676
 21
5.9257
  0
LINE
  8
0
 10
4.83676
 20
5.9257
 11
5
 21
5.93999
  0
LINE
  8
0
 10
5
 20
5.93999
 11
5.16322
 21
5.9257
  0
LINE
  8
0
 10
5.16322
 20
5.9257
 11
5.32149
 21
5.8833
  0
LINE
  8
0
 10
5.32149
 20
5.8833
 11
5.46999
 21
5.81406
  0
LINE
  8
0
 10
5.46999
 20
5.81406
 11
5.60422
 21
5.72008
  0
LINE
  8
0
 10
5.60422
 20
5.72008
 11
5.72008
 21
5.60422
  0
LINE
  8
0
 10
5.72008
 20
5.60422
 11
5.81406
 21
5.46999
  0
LINE
  8
0
 10
5.81406
 20
5.46999
 11
5.8833
 21
5.32149
  0
LINE
  8
0
 10
5.8833
 20
5.32149
 11
5.9257
 21
5.16322
  0
LINE
  8
0
 10
5.9257
 20
5.16322
 11
5.93999
 21
5
  0
LINE
  8
0
 10
5.93999
 20
5
 11
5.9257
 21
4.83676
  0
LINE
  8
0
 10
5.9257
 20
4.83676
 11
5.8833
 21
4.6785
  0
LINE
  8
0
 10
5.8833
 20
4.6785
 11
5.81406
 21
4.53
  0
LINE
  8
0
 10
5.81406
 20
4.53
 11
5.72008
 21
4.39577
  0
LINE
  8
0
 10
5.72008
 20
4.39577
 11
5.60422
 21
4.27991
  0
LINE
  8
0
 10
5.60422
 20
4.27991
 11
5.46999
 21
4.18593
  0
LINE
  8
0
 10
5.46999
 20
4.18593
 11
5.32149
 21
4.11668
  0
LINE
  8
0
 10
5.32149
 20
4.11668
 11
5.16322
 21
4.07428
  0
LINE
  8
0
 10
5.16322
 20
4.07428
 11
5
 21
4.06
  0
LINE
  8
0
 10
5
 20
4.06
 11
4.83676
 21
4.07428
  0
LINE
  8
0
 10
62.8368
 20
4.07428
 11
62.6785
 21
4.11668
  0
LINE
  8
0
 10
62.6785
 20
4.11668
 11
62.53
 21
4.18593
  0
LINE
  8
0
 10
62.53
 20
4.18593
 11
62.3958
 21
4.27991
  0
LINE
  8
0
 10
62.3958
 20
4.27991
 11
62.2799
 21
4.39577
  0
LINE
  8
0
 10
62.2799
 20
4.39577
 11
62.1859
 21
4.53
  0
LINE
  8
0
 10
62.1859
 20
4.53
 11
62.1167
 21
4.6785
  0
LINE
  8
0
 10
62.1167
 20
4.6785
 11
62.0743
 21
4.83676
  0
LINE
  8
0
 10
62.0743
 20
4.83676
 11
62.06
 21
5
  0
LINE
  8
0
 10
62.06
 20
5
 11
62.0743
 21
5.16322
  0
LINE
  8
0
 10
62.0743
 20
5.16322
 11
62.1167
 21
5.32149
  0
LINE
  8
0
 10
62.1167
 20
5.32149
 11
62.1859
 21
5.46999
  0
LINE
  8
0
 10
62.1859
 20
5.46999
 11
62.2799
 21
5.60422
  0
LINE
  8
0
 10
62.2799
 20
5.60422
 11
62.3958
 21
5.72008
  0
LINE
  8
0
 10
62.3958
 20
5.72008
 11
62.53
 21
5.81406
  0
LINE
  8
0
 10
62.53
 20
5.81406
 11
62.6785
 21
5.8833
  0
LINE
  8
0
 10
62.6785
 20
5.8833
 11
62.8368
 21
5.9257
  0
LINE
  8
0
 10
62.8368
 20
5.9257
 11
63
 21
5.93999
  0
LINE
  8
0
 10
63
 20
5.93999
 11
63.1632
 21
5.9257
  0
LINE
  8
0
 10
63.1632
 20
5.9257
 11
63.3215
 21
5.8833
  0
LINE
  8
0
 10
63.3215
 20
5.8833
 11
63.47
 21
5.81406
  0
LINE
  8
0
 10
63.47
 20
5.81406
 11
63.6042
 21
5.72008
  0
LINE
  8
0
 10
63.6042
 20
5.72008
 11
63.7201
 21
5.60422
  0
LINE
  8
0
 10
63.7201
 20
5.60422
 11
63.8141
 21
5.46999
  0
LINE
  8
0
 10
63.8141
 20
5.46999
 11
63.8833
 21
5.32149
  0
LINE
  8
0
 10
63.8833
 20
5.32149
 11
63.9257
 21
5.16322
  0
LINE
  8
0
 10
63.9257
 20
5.16322
 11
63.94
 21
5
  0
LINE
  8
0
 10
63.94
 20
5
 11
63.9257
 21
4.83676
  0
LINE
  8
0
 10
63.9257
 20
4.83676
 11
63.8833
 21
4.6785
  0
LINE
  8
0
 10
63.8833
 20
4.6785
 11
63.8141
 21
4.53
  0
LINE
  8
0
 10
63.8141
 20
4.53
 11
63.7201
 21
4.39577
  0
LINE
  8
0
 10
63.7201
 20
4.39577
 11
63.6042
 21
4.27991
  0
LINE
  8
0
 10
63.6042
 20
4.27991
 11
63.47
 21
4.18593
  0
LINE
  8
0
 10
63.47
 20
4.18593
 11
63.3215
 21
4.11668
  0
LINE
  8
0
 10
63.3215
 20
4.11668
 11
63.1632
 21
4.07428
  0
LINE
  8
0
 10
63.1632
 20
4.07428
 11
63
 21
4.06
  0
LINE
  8
0
 10
63
 20
4.06
 11
62.8368
 21
4.07428
  0
ENDSEC
  0
SECTION
  2
OBJECTS
  0
DICTIONARY
  0
ENDSEC
  0
EOF
