<?xml version="1.0" standalone="no"?>
<!DOCTYPE svg PUBLIC "-//W3C//DTD SVG 1.1//EN" "http://www.w3.org/Graphics/SVG/1.1/DTD/svg11.dtd">
<svg width="78mm" height="78mm" viewBox="0 -78 78 78" xmlns="http://www.w3.org/2000/svg" version="1.1">
<title>OpenSCAD Model</title>
<path d="
M 74.1946,-0.0607605 L 74.8681,-0.241226 L 75.5,-0.535889 L 76.0712,-0.935822 L 76.5642,-1.42885 L 76.9641,-2
 L 77.2588,-2.63191 L 77.4392,-3.3054 L 77.5,-4 L 77.5,-28.5 L 74.8953,-28.7279 L 72.3697,-29.4046
 L 70,-30.5096 L 67.8582,-32.0093 L 66.0093,-33.8582 L 64.5096,-36 L 63.4046,-38.3697 L 62.7279,-40.8953
 L 62.5,-43.5 L 62.5,-60.5 L 51.5,-60.5 L 51.5,-77.5 L 4,-77.5 L 3.3054,-77.4392
 L 2.63191,-77.2588 L 2,-76.9641 L 1.42885,-76.5642 L 0.935822,-76.0712 L 0.535889,-75.5 L 0.241226,-74.8681
 L 0.0607605,-74.1946 L 0,-73.5 L 0,-4 L 0.0607605,-3.3054 L 0.241226,-2.63191 L 0.535889,-2
 L 0.935822,-1.42885 L 1.42885,-0.935822 L 2,-0.535889 L 2.63191,-0.241226 L 3.3054,-0.0607605 L 4,-0
 L 73.5,-0 z
M 42.8368,-71.5743 L 42.6785,-71.6167 L 42.53,-71.6859 L 42.3958,-71.7799 L 42.2799,-71.8958 L 42.1859,-72.03
 L 42.1167,-72.1785 L 42.0743,-72.3368 L 42.06,-72.5 L 42.0743,-72.6632 L 42.1167,-72.8215 L 42.1859,-72.97
 L 42.2799,-73.1042 L 42.3958,-73.2201 L 42.53,-73.3141 L 42.6785,-73.3833 L 42.8368,-73.4257 L 43,-73.44
 L 43.1632,-73.4257 L 43.3215,-73.3833 L 43.47,-73.3141 L 43.6042,-73.2201 L 43.7201,-73.1042 L 43.8141,-72.97
 L 43.8833,-72.8215 L 43.9257,-72.6632 L 43.94,-72.5 L 43.9257,-72.3368 L 43.8833,-72.1785 L 43.8141,-72.03
 L 43.7201,-71.8958 L 43.6042,-71.7799 L 43.47,-71.6859 L 43.3215,-71.6167 L 43.1632,-71.5743 L 43,-71.56
 z
M 4.83676,-71.5743 L 4.6785,-71.6167 L 4.53,-71.6859 L 4.39577,-71.7799 L 4.27991,-71.8958 L 4.18593,-72.03
 L 4.11668,-72.1785 L 4.07428,-72.3368 L 4.06,-72.5 L 4.07428,-72.6632 L 4.11668,-72.8215 L 4.18593,-72.97
 L 4.27991,-73.1042 L 4.39577,-73.2201 L 4.53,-73.3141 L 4.6785,-73.3833 L 4.83676,-73.4257 L 5,-73.44
 L 5.16322,-73.4257 L 5.32149,-73.3833 L 5.46999,-73.3141 L 5.60422,-73.2201 L 5.72008,-73.1042 L 5.81406,-72.97
 L 5.8833,-72.8215 L 5.9257,-72.6632 L 5.93999,-72.5 L 5.9257,-72.3368 L 5.8833,-72.1785 L 5.81406,-72.03
 L 5.72008,-71.8958 L 5.60422,-71.7799 L 5.46999,-71.6859 L 5.32149,-71.6167 L 5.16322,-71.5743 L 5,-71.56
 z
M 4.83676,-45.0743 L 4.6785,-45.1167 L 4.53,-45.1859 L 4.39577,-45.2799 L 4.27991,-45.3958 L 4.18593,-45.53
 L 4.11668,-45.6785 L 4.07428,-45.8368 L 4.06,-46 L 4.07428,-46.1632 L 4.11668,-46.3215 L 4.18593,-46.47
 L 4.27991,-46.6042 L 4.39577,-46.7201 L 4.53,-46.8141 L 4.6785,-46.8833 L 4.83676,-46.9257 L 5,-46.94
 L 5.16322,-46.9257 L 5.32149,-46.8833 L 5.46999,-46.8141 L 5.60422,-46.7201 L 5.72008,-46.6042 L 5.81406,-46.47
 L 5.8833,-46.3215 L 5.9257,-46.1632 L 5.93999,-46 L 5.9257,-45.8368 L 5.8833,-45.6785 L 5.81406,-45.53
 L 5.72008,-45.3958 L 5.60422,-45.2799 L 5.46999,-45.1859 L 5.32149,-45.1167 L 5.16322,-45.0743 L 5,-45.06
 z
M 47.3368,-45.0743 L 47.1785,-45.1167 L 47.03,-45.1859 L 46.8958,-45.2799 L 46.7799,-45.3958 L 46.6859,-45.53
 L 46.6167,-45.6785 L 46.5743,-45.8368 L 46.56,-46 L 46.5743,-46.1632 L 46.6167,-46.3215 L 46.6859,-46.47
 L 46.7799,-46.6042 L 46.8958,-46.7201 L 47.03,-46.8141 L 47.1785,-46.8833 L 47.3368,-46.9257 L 47.5,-46.94
 L 47.6632,-46.9257 L 47.8215,-46.8833 L 47.97,-46.8141 L 48.1042,-46.7201 L 48.2201,-46.6042 L 48.3141,-46.47
 L 48.3833,-46.3215 L 48.4257,-46.1632 L 48.44,-46 L 48.4257,-45.8368 L 48.3833,-45.6785 L 48.3141,-45.53
 L 48.2201,-45.3958 L 48.1042,-45.2799 L 47.97,-45.1859 L 47.8215,-45.1167 L 47.6632,-45.0743 L 47.5,-45.06
 z
M 37.0135,-9.52692 L 35.3298,-9.97807 L 33.75,-10.7147 L 32.3221,-11.7146 L 31.0896,-12.9471 L 30.0897,-14.375
 L 29.3531,-15.9548 L 28.9019,-17.6385 L 28.75,-19.375 L 28.9019,-21.1115 L 29.3531,-22.7952 L 30.0897,-24.375
 L 31.0896,-25.8029 L 32.3221,-27.0354 L 33.75,-28.0352 L 35.3298,-28.7719 L 37.0135,-29.2231 L 38.75,-29.375
 L 40.4865,-29.2231 L 42.1702,-28.7719 L 43.75,-28.0352 L 45.1779,-27.0354 L 46.4104,-25.8029 L 47.4102,-24.375
 L 48.1469,-22.7952 L 48.5981,-21.1115 L 48.75,-19.375 L 48.5981,-17.6385 L 48.1469,-15.9548 L 47.4102,-14.375
 L 46.4104,-12.9471 L 45.1779,-11.7146 L 43.75,-10.7147 L 42.1702,-9.97807 L 40.4865,-9.52692 L 38.75,-9.375
 z
M 62.8368,-27.0743 L 62.6785,-27.1167 L 62.53,-27.1859 L 62.3958,-27.2799 L 62.2799,-27.3958 L 62.1859,-27.53
 L 62.1167,-27.6785 L 62.0743,-27.8368 L 62.06,-28 L 62.0743,-28.1632 L 62.1167,-28.3215 L 62.1859,-28.47
 L 62.2799,-28.6042 L 62.3958,-28.7201 L 62.53,-28.8141 L 62.6785,-28.8833 L 62.8368,-28.9257 L 63,-28.94
 L 63.1632,-28.9257 L 63.3215,-28.8833 L 63.47,-28.8141 L 63.6042,-28.7201 L 63.7201,-28.6042 L 63.8141,-28.47
 L 63.8833,-28.3215 L 63.9257,-28.1632 L 63.94,-28 L 63.9257,-27.8368 L 63.8833,-27.6785 L 63.8141,-27.53
 L 63.7201,-27.3958 L 63.6042,-27.2799 L 63.47,-27.1859 L 63.3215,-27.1167 L 63.1632,-27.0743 L 63,-27.06
 z
M 4.83676,-27.0743 L 4.6785,-27.1167 L 4.53,-27.1859 L 4.39577,-27.2799 L 4.27991,-27.3958 L 4.18593,-27.53
 L 4.11668,-27.6785 L 4.07428,-27.8368 L 4.06,-28 L 4.07428,-28.1632 L 4.11668,-28.3215 L 4.18593,-28.47
 L 4.27991,-28.6042 L 4.39577,-28.7201 L 4.53,-28.8141 L 4.6785,-28.8833 L 4.83676,-28.9257 L 5,-28.94
 L 5.16322,-28.9257 L 5.32149,-28.8833 L 5.46999,-28.8141 L 5.60422,-28.7201 L 5.72008,-28.6042 L 5.81406,-28.47
 L 5.8833,-28.3215 L 5.9257,-28.1632 L 5.93999,-28 L 5.9257,-27.8368 L 5.8833,-27.6785 L 5.81406,-27.53
 L 5.72008,-27.3958 L 5.60422,-27.2799 L 5.46999,-27.1859 L 5.32149,-27.1167 L 5.16322,-27.0743 L 5,-27.06
 z
M 4.83676,-4.07428 L 4.6785,-4.11668 L 4.53,-4.18593 L 4.39577,-4.27991 L 4.27991,-4.39577 L 4.18593,-4.53
 L 4.11668,-4.6785 L 4.07428,-4.83676 L 4.06,-5 L 4.07428,-5.16322 L 4.11668,-5.32149 L 4.18593,-5.46999
 L 4.27991,-5.60422 L 4.39577,-5.72008 L 4.53,-5.81406 L 4.6785,-5.8833 L 4.83676,-5.9257 L 5,-5.93999
 L 5.16322,-5.9257 L 5.32149,-5.8833 L 5.46999,-5.81406 L 5.60422,-5.72008 L 5.72008,-5.60422 L 5.81406,-5.46999
 L 5.8833,-5.32149 L 5.9257,-5.16322 L 5.93999,-5 L 5.9257,-4.83676 L 5.8833,-4.6785 L 5.81406,-4.53
 L 5.72008,-4.39577 L 5.60422,-4.27991 L 5.46999,-4.18593 L 5.32149,-4.11668 L 5.16322,-4.07428 L 5,-4.06
 z
M 62.8368,-4.07428 L 62.6785,-4.11668 L 62.53,-4.18593 L 62.3958,-4.27991 L 62.2799,-4.39577 L 62.1859,-4.53
 L 62.1167,-4.6785 L 62.0743,-4.83676 L 62.06,-5 L 62.0743,-5.16322 L 62.1167,-5.32149 L 62.1859,-5.46999
 L 62.2799,-5.60422 L 62.3958,-5.72008 L 62.53,-5.81406 L 62.6785,-5.8833 L 62.8368,-5.9257 L 63,-5.93999
 L 63.1632,-5.9257 L 63.3215,-5.8833 L 63.47,-5.81406 L 63.6042,-5.72008 L 63.7201,-5.60422 L 63.8141,-5.46999
 L 63.8833,-5.32149 L 63.9257,-5.16322 L 63.94,-5 L 63.9257,-4.83676 L 63.8833,-4.6785 L 63.8141,-4.53
 L 63.7201,-4.39577 L 63.6042,-4.27991 L 63.47,-4.18593 L 63.3215,-4.11668 L 63.1632,-4.07428 L 63,-4.06
 z
" stroke="black" fill="lightgray" stroke-width="0.5"/>
</svg>
